<svg xmlns="http://www.w3.org/2000/svg" width="512" height="104.091" viewBox="0 0 512 104.091"><g transform="translate(0 -203.953)"><path d="M512,308.044V294.877l-7.25-2.479v2.154l-6.3-2.154v2.154l-5.98-2.046V277.26l-2.4-6.534v-9.06H488.23v1.519H483.8v-1.519h-1.845v9.06l-2.4,6.534v15.374H472.4c.633-17.771.253-32.859-8.938-41.457-8.289,7.753-9.411,20.789-9.088,36.31h-4.561v-6.2h-9.537v-13.22a21.229,21.229,0,0,0-4.194-2.237V259.4c-8.947,1.118-13.42,6.711-13.42,9.506v27.484h-4.256v.161h-.129v-2.091h1.833v-2.438H418.28v-2.091h1.833v-2.44H418.28V285.4h1.833v-2.439H418.28v-2.091h1.833v-2.439H418.28v-2.09h1.833V273.9h-5.157v-6.968h-7.281V273.9h-5.157v2.44h1.833v2.09h-1.833v2.439h1.833v2.091h-1.833V285.4h1.833v2.089h-1.833v2.44h1.833v2.091h-1.007v-1.341H388.733v1.929h.827v8.546h-4.272v-48.23h-2.505V263.18l-10.858,6.445v15.408h-4.439l-.438-2.126a1.654,1.654,0,1,0-2,0l-.438,2.126h-9.951v2.481h1.653v4.826h-1.653v2.48h1.653v.271h-9.184a76.8,76.8,0,0,1-1.147-8.2h1.629l.581-6.722h-3.724a115.539,115.539,0,0,1-.872-13.77H344.7v-4.292h-1.745v-8.965h-1.28v-9.811h-.815v9.811h-1.279v8.965h-1.746V266.4h1.105a115.785,115.785,0,0,1-.872,13.77h-3.725l.582,6.722h1.63a84.12,84.12,0,0,1-2.13,12.756v-4.983h-8.211V281.15l-1.9-1.582v-1.9l-1.265-1.054a3.423,3.423,0,0,0-6.749,0l-1.265,1.054v1.9l-1.9,1.582v16.078l-2.287-1.865-2.533,2.066-.8-24.355h1.25l1.887-9.191h-3.436l-.933-28.554h.949l1.317-6.416h-2.476L305.7,217.3H304.39v-7.631h.577v-2.225h-.577v-3.495h-1.384v3.495h-.576v2.225h.576V217.3h-1.312l-.379,11.609h-2.477l1.317,6.416h.95l-.934,28.554h-3.436l1.887,9.191h1.25l-.728,22.288h-5.481v1.653h-5.669V290.4h-8.546v6.616h-5.332V290.4H266.6v-1.991l-5.376-6.272-5.236,6.109-5.236-6.109-5.375,6.272v11.749h-1.991V277.864H228.773v-29.68h-3.358v-1.766h3.358V245H213.221v1.414h3.358v1.766h-3.358v54.458l-.881-.719v-2.469l.635.517v-1.038l-4.381-3.573-4.38,3.573v1.038l.634-.517v2.469l-3.314,2.7V274.686l-8.156-2.79-5.582,2.361v12.392h-2.413L182.9,283.79l-2.488,2.859h-1.738V261.22l-5.2-1.81-5.2,1.81v4.524h-7.238V261.22l-5.2-1.81-5.2,1.81v34.638h-2.435v-14.44l-9.926-5.188v5.64H137.1V253.139H135v-3.706H133.17v-2.751h-2.244v-9.176H129.8v9.176h-2.245v2.751h-1.824v3.706h-2.105v23.646a12.373,12.373,0,0,0-.652-1.286h-5.138c-1.5,2.531-2.186,6.173-2.507,9.4v-1.495h-.916v-1.019h.916v-1.832h-.916v-1.018h.916V277.7h-.916v-1.017h.916v-1.832h-.916v-1.018h.916V272h-.916v-1.017h.916v-1.832h-1.8v-3.046h-.916v-3.664h-1.679v3.664h-3.055v3.046h-2.938v1.832h.916V272h-.916v1.833h.916v1.018h-.916v1.832h.916V277.7h-.916v1.833h.916v1.018h-.916v1.832h.916v1.019h-.916v1.832h.916v.064h-1.717a3.655,3.655,0,0,0-6.891,0h-2.1v1.625h.541v11.382l-4.256-2.948-5.57,3.859v.9c-.541-2.885-.966-5.7-1.286-8.243-.282-2.241-.484-4.278-.616-5.976-.036-.458-.065-.89-.091-1.3h5.744l-5.845-4.952V275.8h5.845l-5.845-4.953v-3.637l2.676-3.688H74.369l2.677,3.688v3.638L71.2,275.8h5.845v3.856L71.2,284.608h5.744c-.059.972-.149,2.1-.27,3.343a139.6,139.6,0,0,1-2.208,14.634l-.81-.662v-2.469l.633.517v-1.038l-4.38-3.573-4.381,3.573v1.038l.635-.517v2.469l-.745.607V289.145H63.905v-2.78H59.183v2.78H53.626V274.564H52.17v-2.183h1.456v-1.455h-9.1v1.455h1.455v2.183H44.529V293.85H39.435V270.2H29.974v1.455h2.183V274.2H29.974v19.873l-3.916-1.991-3.821,1.942v-7H20.555v-3.09H15.3v3.09H8.5v4.637H6.328v2.163H8.5v2.473H6.86l-1.147-.934-4.38,3.573v.425H0v8.682H76.789v-2.522l.634.517V305l-.329-.268,3.234-2.465h.125l3.725,2.824v2.95H201.537v-2.376l.179-.146v2.522h99.5l2.485-6.377,2.484,6.377H337.61s.756-7.188,3.666-7.188c1.84,0,2.819,2.877,3.29,4.989v2.2H512ZM84.109,294.476q.235,1.648.526,3.384l-3.773-3.186h3.247ZM82.174,267.5l-1.8,1.271-1.8-1.271Zm-3.234-.876,1.44-.923,1.437.923ZM80.9,287.246l2.181-2.271c.045.691.1,1.451.178,2.271Zm2.406.509c.009.1.017.193.028.292.074.766.158,1.579.257,2.426l-2.61-2.718Zm-.981-16.21-1.949,1.379-1.948-1.379Zm-3.82-.877,1.871-1.324,1.871,1.324Zm4.454,1v3.08l-2.178-1.54Zm-.562,3.256H78.355l2.021-1.43Zm.116.879-2.137,1.51L78.24,275.8Zm.446.257v3.078L80.782,277.6Zm-.336,3.414H78.13l2.247-1.589Zm-.223.878-2.024,1.433-2.024-1.433Zm-.079,3.381H78.433l1.945-1.376Zm.468.878-2.413,2.514-2.413-2.514Zm-2.008-2.541,2.178-1.538v1.431c0,.456.014,1.02.045,1.68ZM82.96,270.6l-2.178-1.54,2.178-1.539Zm-2.988-1.54-2.113,1.494v-2.988Zm0,4.152L77.859,274.7v-2.988Zm0,4.391L77.859,279.1v-2.988Zm0,4.471L77.815,283.6c.03-.64.044-1.188.044-1.633v-1.386Zm-.119,5.174H77.558c.04-.438.076-.86.106-1.263.025-.327.048-.644.068-.946Zm-.08.509L77.236,290.4c.106-.928.2-1.813.276-2.643Zm.6.037,3.3,3.441c.009.073.017.144.028.218L80.5,294.164h-.237L77.105,291.5c.014-.114.029-.229.042-.343Zm3.687,6.372H81.215L83.775,292C83.864,292.7,83.959,293.426,84.064,294.164Zm3.2-10.429h-3.44c0-.035,0-.069,0-.1-.031-.663-.046-1.226-.046-1.668v-1.189Zm0-8.809H83.772v-2.958ZM84.777,264.4l-1.61,2.22h-.481l-1.87-1.2,1.59-1.018Zm-3.241,0-1.155.74-1.153-.74Zm-5.5,0h2.32l1.586,1.018-1.875,1.2h-.42Zm-2.485,10.522,3.492-2.957v2.957Zm0,8.809,3.492-2.958v1.189c0,.441-.016,1-.047,1.668,0,.034,0,.068,0,.1h-3.44Zm3.481,8.315,2.5,2.113H76.753Q76.906,293.08,77.036,292.05Zm-.355,2.624h3.212l-3.7,3.125C76.372,296.734,76.534,295.689,76.681,294.674Zm.044,9.758-1.551-1.266c.064-.3.13-.6.191-.895h4.194Zm-1.258-2.67c.191-.962.371-1.918.538-2.862l3.777,2.862Zm4.923-.125-4.229-3.2,4.215-3.561,4.216,3.562Zm4.417-2.78q.252,1.439.544,2.9H81Zm-3.582,3.414h4.108l-1.155.628v1.611Zm33.19-17.029h.883c-.031.345-.059.684-.082,1.017h-.8Zm0,2.85h.7c-.014.356-.024.7-.033,1.018h-.664Zm0,2.851h.64v1.018h-.64Zm0,2.85h.64v1.018h-.64Zm0,2.85h.64v1.019h-.64Zm0,2.85h.64v1.02h-.64Zm0,2.851h.64v1.018h-.64Zm0,3.868v-1.019h.64v1.019Z" fill="#231815"/></g></svg>